<svg width="20" height="20" viewBox="0 0 20 20" fill="none" xmlns="http://www.w3.org/2000/svg">
<path d="M10 18.9584C9.50005 18.9584 9.00838 18.8417 8.60838 18.6167L4.66672 16.3417C3.03338 15.2417 2.92505 15.0417 2.92505 13.3167V9.18336C2.92505 7.45836 3.03338 7.25836 4.63338 6.18336L8.61671 3.88336C9.40838 3.42503 10.6 3.42503 11.3917 3.88336L15.3334 6.15836C16.9667 7.25836 17.075 7.45836 17.075 9.18336V13.3167C17.075 15.0417 16.9667 15.2417 15.3667 16.3167L11.3834 18.6167C10.9917 18.85 10.4917 18.9584 10 18.9584ZM10 4.7917C9.71671 4.7917 9.43338 4.85003 9.23338 4.9667L5.29172 7.24169C4.17505 8.00003 4.17505 8.00003 4.17505 9.18336V13.3167C4.17505 14.5 4.17505 14.5 5.33338 15.2834L9.24171 17.5334C9.64171 17.7667 10.3667 17.7667 10.7667 17.5334L14.7084 15.2584C15.825 14.5 15.825 14.5 15.825 13.3167V9.18336C15.825 8.00003 15.825 8.00003 14.6667 7.2167L10.7584 4.9667C10.5667 4.85003 10.2834 4.7917 10 4.7917Z" fill="currentColor"/>
<path d="M14.5833 6.98335C14.2416 6.98335 13.9583 6.70002 13.9583 6.35835V4.16669C13.9583 2.85002 13.4 2.29169 12.0833 2.29169H7.91663C6.59996 2.29169 6.04163 2.85002 6.04163 4.16669V6.30002C6.04163 6.64169 5.75829 6.92502 5.41663 6.92502C5.07496 6.92502 4.79163 6.65002 4.79163 6.30002V4.16669C4.79163 2.15002 5.89996 1.04169 7.91663 1.04169H12.0833C14.1 1.04169 15.2083 2.15002 15.2083 4.16669V6.35835C15.2083 6.70002 14.925 6.98335 14.5833 6.98335Z" fill="currentColor"/>
<path d="M11.3584 14.6916C11.1834 14.6916 11 14.6583 10.8167 14.5833L10 14.2666L9.18337 14.5916C8.7417 14.7666 8.2917 14.725 7.95837 14.4833C7.62504 14.2416 7.45004 13.825 7.47504 13.35L7.52503 12.475L6.9667 11.8C6.6667 11.425 6.5667 10.9916 6.70004 10.5916C6.82504 10.2 7.1667 9.89998 7.62503 9.78331L8.47504 9.56664L8.95004 8.82498C9.45837 8.02498 10.55 8.02498 11.0584 8.82498L11.5334 9.56664L12.3834 9.78331C12.8417 9.89998 13.1834 10.2 13.3084 10.5916C13.4334 10.9833 13.3334 11.425 13.0334 11.7916L12.475 12.4666L12.525 13.3416C12.55 13.8166 12.375 14.225 12.0417 14.475C11.8417 14.6166 11.6084 14.6916 11.3584 14.6916ZM7.93337 11L8.4917 11.675C8.68337 11.9 8.7917 12.2583 8.77504 12.55L8.72504 13.425L9.5417 13.1C9.8167 12.9916 10.1834 12.9916 10.4584 13.1L11.275 13.425L11.225 12.55C11.2084 12.2583 11.3167 11.9083 11.5084 11.675L12.0667 11L11.2167 10.7833C10.9334 10.7083 10.6334 10.4916 10.475 10.25L10.0084 9.51664L9.53337 10.25C9.37504 10.5 9.07504 10.7166 8.7917 10.7916L7.93337 11Z" fill="currentColor"/>
</svg>
