<svg width="20" height="20" viewBox="0 0 20 20" fill="none" xmlns="http://www.w3.org/2000/svg">
<path d="M14.8251 18.9583H5.17508C2.89175 18.9583 1.04175 17.1 1.04175 14.8167V8.64166C1.04175 7.50833 1.74175 6.08333 2.64175 5.38333L7.13342 1.88333C8.48342 0.833332 10.6417 0.783332 12.0417 1.76667L17.1917 5.375C18.1834 6.06666 18.9584 7.55 18.9584 8.75833V14.825C18.9584 17.1 17.1084 18.9583 14.8251 18.9583ZM7.90008 2.86667L3.40841 6.36666C2.81675 6.83333 2.29175 7.89166 2.29175 8.64166V14.8167C2.29175 16.4083 3.58341 17.7083 5.17508 17.7083H14.8251C16.4167 17.7083 17.7084 16.4167 17.7084 14.825V8.75833C17.7084 7.95833 17.1334 6.85 16.4751 6.4L11.3251 2.79167C10.3751 2.125 8.80841 2.15833 7.90008 2.86667Z" fill="currentColor"/>
<path d="M10 15.625C9.65833 15.625 9.375 15.3417 9.375 15V12.5C9.375 12.1583 9.65833 11.875 10 11.875C10.3417 11.875 10.625 12.1583 10.625 12.5V15C10.625 15.3417 10.3417 15.625 10 15.625Z" fill="currentColor"/>
</svg>
