<svg xmlns="http://www.w3.org/2000/svg" xmlns:xlink="http://www.w3.org/1999/xlink" width="500" zoomAndPan="magnify" viewBox="0 0 375 374.999991" height="500" preserveAspectRatio="xMidYMid meet" version="1.0"><defs><clipPath id="fe13b3ca8b"><path d="M 13 26.15625 L 356 26.15625 L 356 355.085938 L 13 355.085938 Z M 13 26.15625 " clip-rule="nonzero"/></clipPath><clipPath id="82a6166e04"><path d="M 356.046875 49.527344 L 374.007812 49.527344 L 374.007812 65.886719 L 356.046875 65.886719 Z M 356.046875 49.527344 " clip-rule="nonzero"/></clipPath><clipPath id="2c4cca9fa9"><path d="M 322 19.921875 L 345 19.921875 L 345 52 L 322 52 Z M 322 19.921875 " clip-rule="nonzero"/></clipPath><clipPath id="43b1a07772"><path d="M 349.035156 299.609375 L 374.007812 299.609375 L 374.007812 318 L 349.035156 318 Z M 349.035156 299.609375 " clip-rule="nonzero"/></clipPath></defs><g clip-path="url(#fe13b3ca8b)"><path fill="#ffffff" d="M 242.253906 28.609375 C 236.078125 28.609375 229.902344 29.804688 224.003906 32.203125 L 45.484375 104.78125 C 20.738281 114.839844 8.792969 143.152344 18.851562 167.894531 L 81.757812 322.628906 C 86.632812 334.613281 95.882812 343.988281 107.804688 349.015625 C 119.71875 354.042969 132.886719 354.132812 144.875 349.257812 L 323.398438 276.683594 C 335.386719 271.808594 344.753906 262.558594 349.785156 250.640625 C 354.816406 238.71875 354.902344 225.550781 350.027344 213.566406 L 287.121094 58.832031 C 282.25 46.847656 273 37.476562 261.082031 32.445312 C 255.019531 29.886719 248.636719 28.609375 242.253906 28.609375 Z M 126.625 355.085938 C 119.949219 355.085938 113.273438 353.746094 106.933594 351.070312 C 94.464844 345.808594 84.789062 336.007812 79.691406 323.46875 L 16.785156 168.734375 C 6.261719 142.851562 18.761719 113.234375 44.644531 102.714844 L 223.164062 30.136719 C 235.703125 25.039062 249.476562 25.128906 261.949219 30.390625 C 274.417969 35.652344 284.09375 45.453125 289.1875 57.992188 L 352.09375 212.726562 C 357.191406 225.265625 357.101562 239.039062 351.839844 251.507812 C 346.578125 263.976562 336.777344 273.652344 324.238281 278.75 L 323.816406 277.714844 L 324.238281 278.75 L 145.714844 351.328125 C 139.550781 353.832031 133.085938 355.085938 126.625 355.085938 " fill-opacity="1" fill-rule="nonzero"/></g><path fill="#ffffff" d="M 82.003906 47.890625 C 81.4375 47.890625 80.953125 47.460938 80.890625 46.886719 C 80.832031 46.273438 81.277344 45.726562 81.894531 45.660156 L 82.496094 45.605469 C 83.109375 45.550781 83.652344 46.003906 83.707031 46.617188 C 83.761719 47.230469 83.3125 47.773438 82.695312 47.828125 L 82.113281 47.882812 C 82.078125 47.890625 82.039062 47.890625 82.003906 47.890625 Z M 72.644531 49.574219 C 72.148438 49.574219 71.699219 49.242188 71.566406 48.742188 C 71.410156 48.148438 71.765625 47.535156 72.363281 47.382812 L 72.941406 47.230469 C 73.539062 47.082031 74.148438 47.4375 74.300781 48.039062 C 74.453125 48.636719 74.089844 49.242188 73.492188 49.390625 L 72.929688 49.539062 C 72.832031 49.5625 72.738281 49.574219 72.644531 49.574219 Z M 63.671875 52.710938 C 63.242188 52.710938 62.832031 52.464844 62.648438 52.042969 C 62.402344 51.480469 62.65625 50.824219 63.222656 50.574219 L 63.777344 50.332031 C 64.34375 50.09375 65 50.355469 65.238281 50.921875 C 65.484375 51.484375 65.222656 52.140625 64.65625 52.382812 L 64.121094 52.617188 C 63.972656 52.683594 63.820312 52.710938 63.671875 52.710938 Z M 55.296875 57.214844 C 54.933594 57.214844 54.574219 57.039062 54.359375 56.707031 C 54.027344 56.1875 54.175781 55.496094 54.691406 55.164062 L 55.203125 54.835938 C 55.726562 54.507812 56.414062 54.667969 56.742188 55.1875 C 57.070312 55.707031 56.914062 56.398438 56.394531 56.722656 L 55.902344 57.039062 C 55.714844 57.160156 55.503906 57.214844 55.296875 57.214844 Z M 47.726562 62.972656 C 47.417969 62.972656 47.113281 62.84375 46.890625 62.597656 C 46.480469 62.136719 46.523438 61.429688 46.984375 61.019531 L 47.4375 60.617188 C 47.902344 60.214844 48.609375 60.261719 49.011719 60.730469 C 49.417969 61.195312 49.371094 61.898438 48.902344 62.300781 L 48.46875 62.6875 C 48.253906 62.878906 47.988281 62.972656 47.726562 62.972656 Z M 41.132812 69.828125 C 40.886719 69.828125 40.636719 69.746094 40.429688 69.574219 C 39.949219 69.183594 39.882812 68.480469 40.273438 68.003906 L 40.664062 67.535156 C 41.058594 67.066406 41.761719 67.003906 42.234375 67.402344 C 42.703125 67.796875 42.765625 68.5 42.371094 68.972656 L 42 69.421875 C 41.777344 69.691406 41.457031 69.828125 41.132812 69.828125 Z M 35.683594 77.628906 C 35.492188 77.628906 35.296875 77.578125 35.121094 77.472656 C 34.589844 77.160156 34.414062 76.472656 34.726562 75.945312 L 35.035156 75.425781 C 35.351562 74.894531 36.039062 74.722656 36.566406 75.042969 C 37.097656 75.359375 37.265625 76.046875 36.945312 76.574219 L 36.648438 77.078125 C 36.4375 77.429688 36.066406 77.628906 35.683594 77.628906 " fill-opacity="1" fill-rule="nonzero"/><path fill="#ffffff" d="M 326.824219 314.957031 C 326.566406 314.957031 326.308594 314.871094 326.097656 314.6875 C 325.628906 314.285156 325.578125 313.578125 325.980469 313.113281 L 326.359375 312.667969 C 326.753906 312.199219 327.460938 312.140625 327.929688 312.539062 C 328.402344 312.9375 328.460938 313.640625 328.0625 314.113281 L 327.671875 314.570312 C 327.449219 314.828125 327.136719 314.957031 326.824219 314.957031 Z M 320.078125 321.660156 C 319.761719 321.660156 319.449219 321.527344 319.226562 321.269531 C 318.828125 320.800781 318.886719 320.09375 319.351562 319.695312 L 319.796875 319.316406 C 320.261719 318.910156 320.964844 318.960938 321.371094 319.429688 C 321.777344 319.894531 321.722656 320.597656 321.257812 321 L 320.800781 321.398438 C 320.589844 321.574219 320.332031 321.660156 320.078125 321.660156 Z M 312.371094 327.238281 C 311.996094 327.238281 311.625 327.046875 311.417969 326.703125 C 311.097656 326.175781 311.265625 325.488281 311.789062 325.167969 L 312.285156 324.863281 C 312.808594 324.539062 313.496094 324.691406 313.824219 325.214844 C 314.148438 325.738281 313.992188 326.425781 313.472656 326.757812 L 312.949219 327.074219 C 312.769531 327.183594 312.570312 327.238281 312.371094 327.238281 Z M 303.894531 331.542969 C 303.453125 331.542969 303.039062 331.28125 302.859375 330.847656 C 302.628906 330.28125 302.898438 329.628906 303.46875 329.394531 L 304.003906 329.171875 C 304.574219 328.929688 305.226562 329.195312 305.46875 329.761719 C 305.707031 330.328125 305.445312 330.984375 304.875 331.222656 L 304.316406 331.460938 C 304.175781 331.515625 304.035156 331.542969 303.894531 331.542969 Z M 294.847656 334.464844 C 294.339844 334.464844 293.882812 334.121094 293.761719 333.609375 C 293.617188 333.011719 293.988281 332.40625 294.585938 332.265625 L 295.152344 332.125 C 295.75 331.980469 296.359375 332.34375 296.503906 332.941406 C 296.652344 333.539062 296.289062 334.144531 295.6875 334.292969 L 295.105469 334.433594 C 295.015625 334.457031 294.929688 334.464844 294.847656 334.464844 Z M 285.449219 335.929688 C 284.871094 335.929688 284.378906 335.484375 284.335938 334.898438 C 284.289062 334.285156 284.75 333.746094 285.363281 333.699219 L 285.949219 333.652344 C 286.5625 333.601562 287.101562 334.058594 287.152344 334.671875 C 287.203125 335.285156 286.75 335.824219 286.136719 335.875 L 285.535156 335.925781 C 285.503906 335.929688 285.476562 335.929688 285.449219 335.929688 Z M 247.960938 336.105469 L 247.367188 336.105469 C 246.75 336.105469 246.25 335.605469 246.25 334.988281 C 246.25 334.375 246.75 333.875 247.367188 333.875 L 247.960938 333.875 C 248.578125 333.875 249.074219 334.375 249.074219 334.988281 C 249.074219 335.605469 248.578125 336.105469 247.960938 336.105469 Z M 257.480469 336.105469 L 256.886719 336.105469 C 256.273438 336.105469 255.769531 335.605469 255.769531 334.988281 C 255.769531 334.375 256.273438 333.875 256.886719 333.875 L 257.480469 333.875 C 258.097656 333.875 258.597656 334.375 258.597656 334.988281 C 258.597656 335.605469 258.097656 336.105469 257.480469 336.105469 Z M 267.003906 336.105469 L 266.410156 336.105469 C 265.792969 336.105469 265.292969 335.605469 265.292969 334.988281 C 265.292969 334.375 265.792969 333.875 266.410156 333.875 L 267.003906 333.875 C 267.621094 333.875 268.121094 334.375 268.121094 334.988281 C 268.121094 335.605469 267.621094 336.105469 267.003906 336.105469 Z M 276.527344 336.105469 L 275.933594 336.105469 C 275.316406 336.105469 274.816406 335.605469 274.816406 334.988281 C 274.816406 334.375 275.316406 333.875 275.933594 333.875 L 276.527344 333.875 C 277.144531 333.875 277.644531 334.375 277.644531 334.988281 C 277.644531 335.605469 277.144531 336.105469 276.527344 336.105469 " fill-opacity="1" fill-rule="nonzero"/><path fill="#228b22" d="M 280.796875 323.800781 L 88.085938 323.800781 C 60.714844 323.800781 38.53125 301.617188 38.53125 274.246094 L 38.53125 107.21875 C 38.53125 79.847656 60.714844 57.660156 88.085938 57.660156 L 280.796875 57.660156 C 308.164062 57.660156 330.351562 79.847656 330.351562 107.21875 L 330.351562 274.246094 C 330.351562 301.617188 308.164062 323.800781 280.796875 323.800781 " fill-opacity="1" fill-rule="nonzero"/><path fill="#ffffff" d="M 141.703125 29.277344 C 141.417969 29.277344 141.132812 29.167969 140.914062 28.949219 C 140.480469 28.511719 140.480469 27.804688 140.917969 27.367188 L 142.363281 25.921875 C 142.800781 25.484375 143.507812 25.484375 143.941406 25.921875 C 144.378906 26.359375 144.378906 27.0625 143.941406 27.5 L 142.492188 28.949219 C 142.273438 29.167969 141.992188 29.277344 141.703125 29.277344 " fill-opacity="1" fill-rule="nonzero"/><path fill="#ffffff" d="M 131.5625 39.417969 C 131.273438 39.417969 130.988281 39.308594 130.773438 39.089844 C 130.335938 38.65625 130.335938 37.949219 130.773438 37.511719 L 132.222656 36.0625 C 132.65625 35.628906 133.363281 35.628906 133.796875 36.0625 C 134.234375 36.5 134.234375 37.207031 133.796875 37.644531 L 132.351562 39.089844 C 132.132812 39.308594 131.847656 39.417969 131.5625 39.417969 " fill-opacity="1" fill-rule="nonzero"/><path fill="#ffffff" d="M 133.011719 29.277344 C 132.722656 29.277344 132.4375 29.167969 132.222656 28.949219 L 130.773438 27.5 C 130.335938 27.0625 130.335938 26.359375 130.773438 25.921875 C 131.207031 25.484375 131.914062 25.484375 132.351562 25.921875 L 133.796875 27.371094 C 134.234375 27.808594 134.234375 28.511719 133.796875 28.949219 C 133.582031 29.167969 133.296875 29.277344 133.011719 29.277344 " fill-opacity="1" fill-rule="nonzero"/><path fill="#ffffff" d="M 143.152344 39.417969 C 142.867188 39.417969 142.585938 39.308594 142.363281 39.089844 L 140.917969 37.644531 C 140.480469 37.207031 140.480469 36.5 140.917969 36.0625 C 141.351562 35.628906 142.058594 35.628906 142.492188 36.0625 L 143.941406 37.511719 C 144.378906 37.949219 144.378906 38.65625 143.941406 39.089844 C 143.726562 39.308594 143.4375 39.417969 143.152344 39.417969 " fill-opacity="1" fill-rule="nonzero"/><path fill="#ffffff" d="M 57.792969 340.679688 C 57.507812 340.679688 57.222656 340.570312 57.003906 340.351562 C 56.570312 339.914062 56.570312 339.210938 57.003906 338.773438 L 58.453125 337.324219 C 58.890625 336.886719 59.59375 336.886719 60.03125 337.324219 C 60.464844 337.761719 60.46875 338.464844 60.03125 338.902344 L 58.582031 340.351562 C 58.367188 340.570312 58.078125 340.679688 57.792969 340.679688 " fill-opacity="1" fill-rule="nonzero"/><path fill="#ffffff" d="M 47.648438 350.820312 C 47.363281 350.820312 47.078125 350.710938 46.863281 350.492188 C 46.425781 350.058594 46.425781 349.351562 46.863281 348.914062 L 48.3125 347.464844 C 48.746094 347.03125 49.453125 347.03125 49.890625 347.464844 C 50.324219 347.902344 50.324219 348.609375 49.890625 349.042969 L 48.4375 350.492188 C 48.222656 350.710938 47.9375 350.820312 47.648438 350.820312 " fill-opacity="1" fill-rule="nonzero"/><path fill="#ffffff" d="M 49.097656 340.679688 C 48.816406 340.679688 48.53125 340.570312 48.3125 340.351562 L 46.863281 338.902344 C 46.425781 338.464844 46.425781 337.761719 46.863281 337.324219 C 47.296875 336.886719 48.003906 336.886719 48.4375 337.324219 L 49.890625 338.773438 C 50.324219 339.210938 50.324219 339.914062 49.890625 340.351562 C 49.671875 340.570312 49.386719 340.679688 49.097656 340.679688 " fill-opacity="1" fill-rule="nonzero"/><path fill="#ffffff" d="M 59.242188 350.820312 C 58.957031 350.820312 58.667969 350.710938 58.453125 350.492188 L 57.003906 349.042969 C 56.570312 348.609375 56.570312 347.902344 57.003906 347.464844 C 57.441406 347.03125 58.144531 347.03125 58.582031 347.464844 L 60.03125 348.917969 C 60.46875 349.351562 60.464844 350.058594 60.03125 350.492188 C 59.8125 350.710938 59.527344 350.820312 59.242188 350.820312 " fill-opacity="1" fill-rule="nonzero"/><path fill="#ffffff" d="M 351.796875 137.09375 C 348.296875 137.09375 345.453125 139.9375 345.453125 143.433594 C 345.453125 146.929688 348.296875 149.777344 351.796875 149.777344 C 355.292969 149.777344 358.140625 146.929688 358.140625 143.433594 C 358.140625 139.9375 355.292969 137.09375 351.796875 137.09375 Z M 351.796875 152.011719 C 347.066406 152.011719 343.222656 148.164062 343.222656 143.433594 C 343.222656 138.707031 347.066406 134.863281 351.796875 134.863281 C 356.523438 134.863281 360.371094 138.707031 360.371094 143.433594 C 360.371094 148.164062 356.523438 152.011719 351.796875 152.011719 " fill-opacity="1" fill-rule="nonzero"/><path fill="#ffffff" d="M 263.964844 40.683594 C 260.847656 40.683594 257.707031 40.980469 254.582031 41.585938 L 63.738281 78.503906 C 37.28125 83.621094 19.921875 109.3125 25.039062 135.769531 L 57.039062 301.179688 C 61.554688 324.511719 82.074219 340.765625 105.003906 340.769531 C 108.070312 340.769531 111.179688 340.480469 114.300781 339.875 L 305.144531 302.957031 C 317.960938 300.476562 329.042969 293.15625 336.351562 282.339844 C 343.664062 271.523438 346.324219 258.507812 343.84375 245.695312 L 311.84375 80.285156 C 309.363281 67.46875 302.039062 56.386719 291.226562 49.074219 C 283.050781 43.550781 273.617188 40.683594 263.964844 40.683594 Z M 105 343 C 81.023438 343 59.570312 326 54.847656 301.601562 L 22.847656 136.191406 C 17.496094 108.527344 35.652344 81.667969 63.3125 76.316406 L 254.15625 39.394531 C 267.5625 36.800781 281.167969 39.585938 292.476562 47.226562 C 303.785156 54.871094 311.4375 66.460938 314.03125 79.859375 L 346.035156 245.269531 C 348.625 258.667969 345.839844 272.277344 338.199219 283.585938 C 330.558594 294.898438 318.96875 302.554688 305.566406 305.144531 L 305.355469 304.050781 L 305.566406 305.144531 L 114.726562 342.066406 C 111.460938 342.699219 108.207031 343 105 343 " fill-opacity="1" fill-rule="nonzero"/><g clip-path="url(#82a6166e04)"><path fill="#ffffff" d="M 356.785156 65.714844 L 374.9375 58.746094 L 370.015625 49.621094 Z M 356.785156 65.714844 " fill-opacity="1" fill-rule="nonzero"/></g><g clip-path="url(#2c4cca9fa9)"><path fill="#ffffff" d="M 335.289062 19.925781 L 322.894531 51.242188 L 344.933594 26.546875 Z M 335.289062 19.925781 " fill-opacity="1" fill-rule="nonzero"/></g><g clip-path="url(#43b1a07772)"><path fill="#ffffff" d="M 349.691406 299.734375 L 372.136719 317.945312 L 374.769531 307.441406 Z M 349.691406 299.734375 " fill-opacity="1" fill-rule="nonzero"/></g><path fill="#ffffff" d="M 24.121094 287.910156 L 5.144531 287.402344 L 6.175781 297.476562 Z M 24.121094 287.910156 " fill-opacity="1" fill-rule="nonzero"/><path fill="#ffffff" d="M 10.394531 336.734375 L 33.28125 313.121094 L 4.167969 327.15625 Z M 10.394531 336.734375 " fill-opacity="1" fill-rule="nonzero"/><path fill="#ffffff" d="M 16.867188 91.292969 L 1.933594 78.664062 L 0.0117188 85.738281 Z M 16.867188 91.292969 " fill-opacity="1" fill-rule="nonzero"/><path fill="#ffffff" d="M 192.019531 244.054688 C 162.820312 237.511719 159.507812 213.488281 159.140625 208.738281 L 173.671875 204.839844 C 175.339844 204.394531 176.519531 203.054688 176.75 201.347656 C 176.980469 199.640625 176.203125 198.035156 174.71875 197.164062 L 133.011719 172.632812 C 131.785156 171.917969 130.363281 171.722656 128.996094 172.089844 C 127.625 172.453125 126.488281 173.335938 125.789062 174.570312 L 101.933594 216.664062 C 101.082031 218.164062 101.210938 219.941406 102.265625 221.304688 C 103.320312 222.667969 105.007812 223.238281 106.671875 222.792969 L 121.261719 218.882812 C 128.515625 242.605469 147.007812 258.382812 166.007812 258.378906 C 168.941406 258.378906 171.890625 258.003906 174.808594 257.222656 C 181.613281 255.398438 187.753906 251.40625 192.5625 245.671875 C 192.789062 245.40625 192.859375 245.039062 192.746094 244.707031 C 192.636719 244.378906 192.359375 244.128906 192.019531 244.054688 " fill-opacity="1" fill-rule="nonzero"/><path fill="#ffffff" d="M 246.667969 244.882812 C 266.195312 223.941406 269.0625 195.308594 253.097656 179.339844 C 248.457031 174.703125 242.695312 171.589844 235.960938 170.085938 C 235.597656 170.003906 235.21875 170.132812 234.980469 170.417969 C 234.738281 170.703125 234.679688 171.097656 234.820312 171.441406 C 244.367188 194.625 223.015625 213.695312 218.882812 217.097656 L 208.300781 206.511719 C 207.082031 205.292969 205.332031 204.945312 203.734375 205.597656 C 202.140625 206.25 201.140625 207.726562 201.125 209.449219 L 200.742188 257.832031 C 200.730469 259.25 201.277344 260.582031 202.277344 261.582031 C 203.269531 262.574219 204.582031 263.117188 205.980469 263.117188 C 205.996094 263.117188 206.011719 263.117188 206.027344 263.117188 L 254.410156 262.730469 C 256.132812 262.714844 257.609375 261.714844 258.261719 260.121094 C 258.914062 258.527344 258.566406 256.78125 257.347656 255.558594 L 246.667969 244.882812 " fill-opacity="1" fill-rule="nonzero"/><path fill="#ffffff" d="M 243.304688 154.507812 C 243.675781 153.136719 243.480469 151.710938 242.761719 150.492188 L 218.234375 108.785156 C 217.359375 107.296875 215.753906 106.519531 214.046875 106.75 C 212.339844 106.984375 211.003906 108.160156 210.554688 109.824219 L 206.648438 124.410156 C 178.742188 117.972656 152.515625 129.800781 146.675781 151.613281 C 144.84375 158.429688 145.238281 165.75 147.804688 172.792969 C 147.929688 173.144531 148.246094 173.390625 148.617188 173.441406 C 148.980469 173.484375 149.355469 173.324219 149.566406 173.015625 C 162.425781 154.292969 190.972656 160.957031 196.453125 162.449219 L 192.601562 176.824219 C 192.160156 178.488281 192.726562 180.179688 194.085938 181.234375 C 194.855469 181.824219 195.746094 182.125 196.648438 182.125 C 197.359375 182.125 198.070312 181.941406 198.730469 181.566406 L 240.824219 157.710938 C 242.058594 157.011719 242.941406 155.875 243.304688 154.507812 " fill-opacity="1" fill-rule="nonzero"/></svg>