<svg width="20" height="20" viewBox="0 0 20 20" fill="none" xmlns="http://www.w3.org/2000/svg">
<path d="M16.6666 9.16669C16.6666 13.3084 13.3083 16.6667 9.16663 16.6667C5.02496 16.6667 1.66663 13.3084 1.66663 9.16669C1.66663 5.02502 5.02496 1.66669 9.16663 1.66669" stroke="black" stroke-width="1.5" stroke-linecap="round" stroke-linejoin="round"/>
<path d="M11.25 5.10836C10.9583 4.19169 11.3 3.05003 12.2667 2.74169C12.775 2.57503 13.4 2.71669 13.7583 3.20836C14.0917 2.70003 14.7417 2.58336 15.2417 2.74169C16.2083 3.05003 16.55 4.19169 16.2583 5.10836C15.8 6.56669 14.2 7.32503 13.7583 7.32503C13.3083 7.32503 11.725 6.58336 11.25 5.10836Z" stroke="black" stroke-width="1.5" stroke-linecap="round" stroke-linejoin="round"/>
<path d="M15.7749 17.2415C16.2166 18.5749 17.2249 18.7082 17.9999 17.5415C18.7082 16.4749 18.2416 15.5999 16.9582 15.5999C16.0082 15.5915 15.4749 16.3332 15.7749 17.2415Z" stroke="black" stroke-width="1.5" stroke-linecap="round" stroke-linejoin="round"/>
</svg>
