<svg width="20" height="20" viewBox="0 0 20 20" fill="none" xmlns="http://www.w3.org/2000/svg">
<path d="M10.8333 12.2917H1.66663C1.32496 12.2917 1.04163 12.0084 1.04163 11.6667V5.00002C1.04163 2.81669 2.81663 1.04169 4.99996 1.04169H12.5C12.8416 1.04169 13.125 1.32502 13.125 1.66669V10C13.125 11.2667 12.1 12.2917 10.8333 12.2917ZM2.29163 11.0417H10.8333C11.4083 11.0417 11.875 10.575 11.875 10V2.29169H4.99996C3.50829 2.29169 2.29163 3.50835 2.29163 5.00002V11.0417Z" fill="currentColor"/>
<path d="M15.8333 17.2917H15C14.6583 17.2917 14.375 17.0084 14.375 16.6667C14.375 16.0917 13.9083 15.625 13.3333 15.625C12.7583 15.625 12.2916 16.0917 12.2916 16.6667C12.2916 17.0084 12.0083 17.2917 11.6666 17.2917H8.33329C7.99163 17.2917 7.70829 17.0084 7.70829 16.6667C7.70829 16.0917 7.24163 15.625 6.66663 15.625C6.09163 15.625 5.62496 16.0917 5.62496 16.6667C5.62496 17.0084 5.34163 17.2917 4.99996 17.2917H4.16663C2.44163 17.2917 1.04163 15.8917 1.04163 14.1667V11.6667C1.04163 11.325 1.32496 11.0417 1.66663 11.0417H10.8333C11.4083 11.0417 11.875 10.575 11.875 10V4.16669C11.875 3.82502 12.1583 3.54169 12.5 3.54169H14.0333C14.8583 3.54169 15.6166 3.98337 16.025 4.70003L17.45 7.19169C17.5583 7.38336 17.5583 7.62502 17.45 7.81669C17.3416 8.00836 17.1333 8.12502 16.9083 8.12502H15.8333C15.7166 8.12502 15.625 8.21669 15.625 8.33335V10.8334C15.625 10.95 15.7166 11.0417 15.8333 11.0417H18.3333C18.675 11.0417 18.9583 11.325 18.9583 11.6667V14.1667C18.9583 15.8917 17.5583 17.2917 15.8333 17.2917ZM15.5416 16.0417H15.8333C16.8666 16.0417 17.7083 15.2 17.7083 14.1667V12.2917H15.8333C15.0333 12.2917 14.375 11.6334 14.375 10.8334V8.33335C14.375 7.53335 15.025 6.87502 15.8333 6.87502L14.9416 5.31669C14.7583 4.99169 14.4083 4.79169 14.0333 4.79169H13.125V10C13.125 11.2667 12.1 12.2917 10.8333 12.2917H2.29163V14.1667C2.29163 15.2 3.13329 16.0417 4.16663 16.0417H4.4583C4.7333 15.0834 5.61663 14.375 6.66663 14.375C7.71663 14.375 8.59995 15.0834 8.87495 16.0417H11.1333C11.4083 15.0834 12.2916 14.375 13.3416 14.375C14.3916 14.375 15.2666 15.0834 15.5416 16.0417Z" fill="currentColor"/>
<path d="M6.66667 18.9583C5.4 18.9583 4.375 17.9333 4.375 16.6667C4.375 15.4 5.4 14.375 6.66667 14.375C7.93333 14.375 8.95833 15.4 8.95833 16.6667C8.95833 17.9333 7.93333 18.9583 6.66667 18.9583ZM6.66667 15.625C6.09167 15.625 5.625 16.0917 5.625 16.6667C5.625 17.2417 6.09167 17.7083 6.66667 17.7083C7.24167 17.7083 7.70833 17.2417 7.70833 16.6667C7.70833 16.0917 7.24167 15.625 6.66667 15.625Z" fill="currentColor"/>
<path d="M13.3333 18.9583C12.0666 18.9583 11.0416 17.9333 11.0416 16.6667C11.0416 15.4 12.0666 14.375 13.3333 14.375C14.6 14.375 15.625 15.4 15.625 16.6667C15.625 17.9333 14.6 18.9583 13.3333 18.9583ZM13.3333 15.625C12.7583 15.625 12.2916 16.0917 12.2916 16.6667C12.2916 17.2417 12.7583 17.7083 13.3333 17.7083C13.9083 17.7083 14.375 17.2417 14.375 16.6667C14.375 16.0917 13.9083 15.625 13.3333 15.625Z" fill="currentColor"/>
<path d="M18.3333 12.2917H15.8333C15.0333 12.2917 14.375 11.6333 14.375 10.8333V8.33333C14.375 7.53333 15.0333 6.875 15.8333 6.875H16.9083C17.1333 6.875 17.3417 6.99167 17.45 7.19167L18.875 9.69167C18.925 9.78334 18.9583 9.89167 18.9583 10V11.6667C18.9583 12.0083 18.675 12.2917 18.3333 12.2917ZM15.8333 8.125C15.7167 8.125 15.625 8.21667 15.625 8.33333V10.8333C15.625 10.95 15.7167 11.0417 15.8333 11.0417H17.7083V10.1667L16.5417 8.125H15.8333Z" fill="currentColor"/>
</svg>
