<svg width="25" height="24" viewBox="0 0 25 24" fill="none" xmlns="http://www.w3.org/2000/svg">
<path d="M11.2516 16.8604V18.8904C11.2516 20.6104 9.65158 22.0004 7.68158 22.0004C5.71158 22.0004 4.10156 20.6104 4.10156 18.8904V16.8604C4.10156 18.5804 5.70158 19.8004 7.68158 19.8004C9.65158 19.8004 11.2516 18.5704 11.2516 16.8604Z" stroke="#292D32" stroke-width="1.5" stroke-linecap="round" stroke-linejoin="round"/>
<path d="M11.25 14.11C11.25 14.61 11.11 15.07 10.87 15.47C10.28 16.44 9.06998 17.05 7.66998 17.05C6.26998 17.05 5.05997 16.43 4.46997 15.47C4.22997 15.07 4.09003 14.61 4.09003 14.11C4.09003 13.25 4.49 12.48 5.13 11.92C5.78 11.35 6.66997 11.01 7.65997 11.01C8.64997 11.01 9.54 11.36 10.19 11.92C10.85 12.47 11.25 13.25 11.25 14.11Z" stroke="#292D32" stroke-width="1.5" stroke-linecap="round" stroke-linejoin="round"/>
<path d="M11.2516 14.11V16.86C11.2516 18.58 9.65158 19.8 7.68158 19.8C5.71158 19.8 4.10156 18.57 4.10156 16.86V14.11C4.10156 12.39 5.70158 11 7.68158 11C8.67158 11 9.56161 11.35 10.2116 11.91C10.8516 12.47 11.2516 13.25 11.2516 14.11Z" stroke="#292D32" stroke-width="1.5" stroke-linecap="round" stroke-linejoin="round"/>
<path d="M22.5 10.9699V13.03C22.5 13.58 22.06 14.0299 21.5 14.0499H19.54C18.46 14.0499 17.47 13.2599 17.38 12.1799C17.32 11.5499 17.56 10.9599 17.98 10.5499C18.35 10.1699 18.86 9.94995 19.42 9.94995H21.5C22.06 9.96995 22.5 10.4199 22.5 10.9699Z" stroke="#292D32" stroke-width="1.5" stroke-linecap="round" stroke-linejoin="round"/>
<path d="M2.5 10.5V8.5C2.5 5.78 4.14 3.88 6.69 3.56C6.95 3.52 7.22 3.5 7.5 3.5H16.5C16.76 3.5 17.01 3.50999 17.25 3.54999C19.83 3.84999 21.5 5.76 21.5 8.5V9.95001H19.42C18.86 9.95001 18.35 10.17 17.98 10.55C17.56 10.96 17.32 11.55 17.38 12.18C17.47 13.26 18.46 14.05 19.54 14.05H21.5V15.5C21.5 18.5 19.5 20.5 16.5 20.5H14" stroke="#292D32" stroke-width="1.5" stroke-linecap="round" stroke-linejoin="round"/>
</svg>
